<svg width="1053" height="261" viewBox="0 0 1053 261" fill="none" xmlns="http://www.w3.org/2000/svg">
<path d="M557.729 211.691L557.459 231.941L549.359 232.231C543.369 232.441 540.969 232.151 540.109 231.121C539.249 230.081 539.009 214.061 539.199 169.331L539.459 108.941H555.459L555.729 111.941C555.889 113.591 556.239 115.981 556.519 117.241C557.019 119.521 557.059 119.511 560.979 116.161C563.149 114.301 567.299 111.461 570.189 109.861C575.219 107.071 576.019 106.941 587.959 106.941C599.839 106.941 600.749 107.091 606.319 109.911C619.409 116.541 626.959 131.791 626.959 151.621C626.959 162.701 625.759 168.751 621.959 176.791C617.639 185.931 611.259 192.681 603.159 196.661C596.799 199.791 595.969 199.941 584.979 199.941C572.919 199.941 569.189 198.861 562.079 193.301C560.759 192.281 559.309 191.441 558.849 191.441C558.379 191.441 557.879 200.551 557.729 211.691ZM783.319 198.411C775.989 201.151 763.499 201.121 756.289 198.351C750.639 196.171 744.059 190.421 741.309 185.241C740.089 182.941 739.559 179.671 739.559 174.441C739.569 162.451 743.879 156.171 755.999 150.511C763.939 146.791 770.879 145.421 785.959 144.581L797.459 143.941L797.449 137.751C797.439 130.311 795.449 127.021 788.939 123.691C781.149 119.711 768.419 121.151 755.979 127.431C752.699 129.091 749.859 130.441 749.669 130.441C749.479 130.441 748.039 127.741 746.459 124.441C743.649 118.551 743.629 118.401 745.519 116.931C749.579 113.771 761.709 108.551 767.629 107.401C776.979 105.601 794.319 106.601 800.089 109.281C806.149 112.091 811.169 117.781 814.029 125.061C816.199 130.611 816.349 132.421 816.549 157.221C816.779 185.131 817.009 186.441 821.579 186.441C823.799 186.441 823.959 186.821 823.959 191.901C823.959 198.551 822.779 199.441 813.979 199.441C805.889 199.441 802.379 197.571 800.839 192.431C800.179 190.241 799.219 188.441 798.709 188.441C798.189 188.441 795.739 190.231 793.259 192.411C790.779 194.591 786.309 197.291 783.319 198.411ZM491.089 197.221C482.929 200.921 468.709 201.351 461.219 198.111C450.389 193.431 445.019 185.511 444.979 174.151C444.949 163.261 450.639 155.201 462.049 149.991C468.409 147.091 483.889 144.451 494.649 144.451C499.009 144.441 502.119 143.981 502.559 143.281C503.789 141.291 503.019 133.531 501.199 129.651C496.369 119.341 477.019 118.531 460.189 127.941C457.719 129.311 455.579 130.441 455.429 130.441C455.279 130.441 453.949 128.401 452.489 125.901C448.589 119.241 449.229 117.591 457.459 113.251C467.749 107.821 475.709 106.151 489.209 106.591C499.079 106.901 501.159 107.291 506.169 109.751C512.169 112.691 516.769 117.571 519.719 124.101C521.189 127.381 521.489 132.031 521.769 155.921C521.979 173.511 522.499 184.381 523.149 185.171C523.729 185.871 525.499 186.441 527.079 186.441C529.899 186.441 529.959 186.551 529.959 191.901C529.959 198.541 528.769 199.441 520.059 199.441C512.589 199.441 507.129 197.071 506.339 193.491C505.599 190.131 505.289 188.531 504.569 188.311C503.939 188.121 502.989 188.981 501.169 190.631C501.039 190.751 500.899 190.881 500.749 191.011C498.529 193.021 494.179 195.811 491.089 197.221ZM419.109 197.501C403.009 202.661 384.759 202.321 370.319 196.601C356.869 191.261 344.739 179.851 337.949 166.141C328.769 147.631 328.809 120.981 338.049 102.001C349.499 78.4515 369.739 66.4415 397.959 66.4415C410.329 66.4415 420.639 68.6415 429.079 73.0715C432.969 75.1215 436.349 77.3015 436.589 77.9315C437.079 79.1915 431.299 92.1115 429.859 93.0015C429.349 93.3115 425.799 92.0015 421.959 90.0815C412.679 85.4315 405.539 84.0515 394.509 84.7615C386.939 85.2515 384.439 85.8915 378.349 88.9015C364.489 95.7515 355.949 108.601 353.759 125.871C351.569 143.251 355.679 157.501 366.209 169.031C379.649 183.721 402.389 186.741 422.349 176.471C425.589 174.801 428.869 173.441 429.639 173.441C431.049 173.441 434.669 180.751 435.629 185.541C436.429 189.541 430.469 193.851 419.109 197.501ZM896.459 143.941L895.459 197.941L886.409 198.221C881.429 198.381 877.049 198.191 876.659 197.811C876.279 197.421 875.959 168.381 875.959 133.271V69.4415L895.709 69.2615C914.809 69.0915 931.729 69.1215 944.709 69.3315L950.959 69.4415V77.4715C950.959 83.6115 950.609 85.6415 949.489 86.0715C948.689 86.3815 936.419 86.7015 922.239 86.7815L896.459 86.9415V125.941L920.249 126.211L944.039 126.481L943.749 134.711L943.459 142.941L896.459 143.941ZM1048.54 197.841C1044.8 199.411 1032.8 200.651 1029.46 199.821C1024.13 198.491 1019.15 195.991 1016.09 193.121C1009.71 187.101 1009.53 186.081 1009.15 153.191L1008.8 123.441H1002.92C996.039 123.441 994.959 122.291 994.959 114.981C994.959 110.971 995.289 110.271 997.529 109.421C998.939 108.881 1001.55 108.441 1003.33 108.441C1008.51 108.441 1008.96 107.281 1008.96 93.8415V81.6415L1012.21 80.4915C1014 79.8615 1018.26 79.0815 1021.68 78.7515L1027.9 78.1615L1028.18 93.0515L1028.46 107.941L1052.46 108.941L1052.76 114.161C1053.28 123.071 1052.74 123.441 1039.42 123.441H1027.96V148.971C1027.96 176.691 1028.45 179.751 1033.37 182.971C1035.37 184.291 1037.66 184.581 1043.7 184.301L1051.46 183.941L1051.76 190.161L1052.05 196.371L1048.54 197.841ZM726.959 197.631C722.919 199.571 710.859 200.711 706.459 199.561C698.449 197.471 692.869 193.111 689.689 186.471C687.649 182.201 687.499 180.231 687.169 152.741L686.829 123.531L680.639 123.241L674.459 122.941L674.169 116.311L673.869 109.681L678.669 108.961C682.189 108.431 684.219 108.181 685.389 107.041C686.959 105.501 686.959 102.341 686.959 94.7315V93.9515V81.5315L690.709 80.4715C692.769 79.8915 697.039 79.1315 700.179 78.7815L705.899 78.1615L706.179 93.0515L706.459 107.941L730.459 108.941L730.759 114.161C731.279 123.071 730.739 123.441 717.419 123.441H705.959L705.969 147.691C705.969 172.431 706.559 177.491 709.899 181.611C711.639 183.751 712.559 183.941 721.129 183.941H730.459V189.941C730.459 195.811 730.379 195.981 726.959 197.631ZM570.669 184.081C576.359 185.681 585.159 185.151 590.889 182.851C595.879 180.851 603.099 173.051 604.809 167.811C606.839 161.601 607.399 148.241 605.929 141.321C603.349 129.121 594.749 122.181 582.129 122.111C573.919 122.061 567.839 124.561 562.039 130.361L557.919 134.481L558.189 155.601L558.459 176.721L562.169 179.731C564.219 181.381 568.039 183.341 570.669 184.081ZM852.759 198.241C851.509 199.491 843.629 199.671 838.459 198.561L835.459 197.921L835.199 132.681L834.949 67.4415H853.959V132.241C853.959 181.311 853.669 197.331 852.759 198.241ZM660.939 196.491C660.039 198.171 658.809 198.441 652.089 198.441C647.799 198.441 643.989 198.141 643.629 197.771C643.259 197.411 642.959 177.141 642.959 152.741V108.361L652.209 108.651L661.459 108.941L661.719 151.741C661.889 180.101 661.629 195.191 660.939 196.491ZM982.719 153.151L982.459 197.941L974.359 198.231C968.359 198.441 965.969 198.151 965.099 197.111C964.249 196.081 964.009 184.201 964.199 152.321L964.459 108.941L973.719 108.651L982.979 108.361L982.719 153.151ZM767.229 185.541C775.649 189.491 787.029 186.531 794.279 178.511C797.909 174.491 797.959 174.321 797.959 165.941V157.441H789.509C770.029 157.441 758.949 163.111 758.959 173.091C758.969 178.371 762.149 183.161 767.229 185.541ZM474.459 186.001C482.879 189.091 495.469 184.861 501.129 177.041C503.669 173.541 503.959 172.331 503.959 165.161V157.181L493.209 157.651C479.779 158.241 471.929 160.571 467.879 165.181C461.799 172.101 465.109 182.581 474.459 186.001ZM980.759 89.8215C968.749 97.5915 955.349 80.7415 965.939 71.1915C968.479 68.9015 969.899 68.4415 974.459 68.4415C979.009 68.4415 980.439 68.9015 983.009 71.1915C988.669 76.2515 987.569 85.4115 980.759 89.8215ZM655.639 91.3715C652.569 92.5415 652.399 92.5415 649.439 91.5915C643.899 89.8115 639.979 84.4215 639.969 78.5915C639.959 76.1115 640.839 74.3615 643.359 71.8415C646.399 68.8015 647.339 68.4415 652.229 68.4415C658.769 68.4415 662.409 70.8115 663.839 75.9915C665.639 82.4715 662.219 88.8815 655.639 91.3715Z" fill="#1A4D79"/>
<path d="M163.259 259.481C161.649 260.991 154.339 261.321 149.859 260.091C139.859 257.341 131.449 249.331 114.039 225.941C107.079 216.591 100.499 207.781 99.4189 206.361C98.3389 204.931 93.9889 199.081 89.7389 193.361C85.4889 187.631 81.1089 181.821 79.9989 180.441C78.8889 179.061 77.2489 175.751 76.3589 173.081C73.2489 163.821 76.4489 155.931 84.8689 152.091C89.2089 150.111 91.6889 149.961 129.799 149.381C154.639 149.001 170.389 148.381 170.799 147.771C171.429 146.831 183.939 144.931 195.959 143.951C198.979 143.701 204.799 142.361 208.879 140.971C212.959 139.581 216.329 138.561 216.379 138.691C216.419 138.831 217.739 141.511 219.309 144.641C220.879 147.781 221.999 150.761 221.809 151.271C221.069 153.231 210.099 161.791 202.459 166.391C183.979 177.491 162.189 184.331 139.099 186.291C133.499 186.761 128.639 187.431 128.299 187.771C127.499 188.561 129.509 193.981 138.009 213.941C146.419 233.681 149.599 239.561 157.699 250.301C161.199 254.941 163.699 259.071 163.259 259.481ZM314.439 221.941C303.029 224.331 283.359 225.831 276.459 224.851C274.809 224.621 270.019 223.961 265.809 223.391C251.729 221.491 234.439 214.751 221.109 205.971C214.159 201.391 191.959 181.151 191.959 179.391C191.959 178.931 195.109 176.891 198.959 174.871C202.809 172.851 209.419 168.781 213.649 165.841L221.339 160.481L232.899 171.781C251.489 189.961 271.319 203.111 289.959 209.651C299.579 213.021 318.099 217.441 322.609 217.441C324.999 217.441 326.959 217.891 326.959 218.441C326.959 218.991 326.839 219.441 326.689 219.441C326.539 219.441 321.029 220.571 314.439 221.941ZM255.359 244.031C246.709 245.481 212.499 246.741 206.459 245.841C190.579 243.461 177.959 240.691 166.309 237.031C153.839 233.101 152.269 232.351 150.579 229.491C147.219 223.801 138.019 199.981 138.869 199.131C139.319 198.681 143.679 197.621 148.569 196.771C155.959 195.491 158.609 195.431 164.289 196.441C171.139 197.651 173.249 198.791 188.459 209.531C203.649 220.251 223.409 230.381 238.749 235.331C242.209 236.451 249.759 238.131 255.529 239.071C261.599 240.061 265.649 241.151 265.139 241.661C264.649 242.151 260.249 243.211 255.359 244.031ZM88.4889 257.191C88.1689 258.051 85.4289 258.441 79.6089 258.441C74.0789 258.441 70.8689 258.011 70.2189 257.191C69.6789 256.501 68.9489 253.781 68.6089 251.141C68.0189 246.651 56.3589 216.001 49.6989 201.441C40.9189 182.251 39.7289 177.331 42.3389 171.081C46.2989 161.601 59.8289 159.791 67.8789 167.661C71.5389 171.241 72.8789 175.431 77.4189 197.441C79.2989 206.521 81.1089 214.661 81.4489 215.551C83.1689 220.021 89.1489 255.421 88.4889 257.191ZM24.3789 228.221C21.5789 229.711 13.8589 230.471 10.9289 229.541C-6.17113 224.091 -2.18113 199.441 15.7889 199.441C19.7389 199.441 21.4689 200.061 24.9489 202.691C31.5589 207.691 32.6189 208.141 40.8189 209.421L48.4789 210.611L51.7389 218.271C53.5289 222.491 54.9889 226.541 54.9789 227.271C54.9589 228.361 52.2589 228.471 40.6289 227.901C31.3589 227.441 25.6189 227.551 24.3789 228.221ZM105.209 234.791C98.3989 235.431 90.0189 235.651 89.8789 235.191C89.8389 235.051 89.0089 229.771 88.0389 223.441C86.0289 210.401 86.3689 209.181 91.8689 209.641C95.1589 209.911 96.1489 210.861 103.699 220.941C108.229 226.991 111.939 232.441 111.949 233.051C111.949 233.681 109.099 234.421 105.209 234.791Z" fill="#32A4D0"/>
<path d="M193.709 144.141C182.909 145.121 172.339 146.741 170.929 147.651C170.359 147.271 160.559 147.071 148.649 147.231C128.279 147.491 126.189 147.361 124.729 145.731C121.259 141.861 114.049 125.741 112.839 119.131C112.149 115.381 111.039 111.561 110.369 110.641C109.219 109.081 109.019 109.081 107.299 110.641C104.599 113.071 89.8389 119.181 81.1289 121.461C71.6389 123.951 53.1989 124.171 44.4989 121.911C26.1989 117.141 11.8189 102.591 7.83886 84.8015C6.38886 78.3215 7.67886 68.0515 10.4689 63.7915C12.0489 61.3715 12.1989 61.3415 13.4189 63.0915C14.1289 64.1115 14.9989 66.3015 15.3589 67.9715C16.8589 74.8615 26.2789 85.9315 33.6689 89.4915C40.7789 92.9115 54.8289 93.3715 65.9989 90.5515C75.1989 88.2215 88.2389 82.0415 99.2889 74.7715C107.999 69.0315 121.149 57.5515 120.389 56.3315C120.089 55.8415 118.409 55.4315 116.649 55.4215C109.359 55.3715 99.8289 48.6215 94.8889 40.0215C92.3689 35.6315 91.9789 33.9015 91.9689 27.2715C91.9489 9.94148 101.839 0.131477 119.459 0.0014775C128.939 -0.0685225 134.869 2.34148 141.059 8.79148C146.119 14.0615 148.169 20.4315 148.059 30.5815C147.999 36.6515 148.279 38.5215 149.219 38.1215C172.509 28.1515 183.479 25.4215 202.959 24.7115C210.379 24.4315 220.349 24.6915 225.099 25.2815C248.389 28.1415 269.569 39.6315 288.549 59.6915C295.569 67.1015 301.859 75.4415 300.429 75.4415C300.179 75.4415 296.259 72.6715 291.719 69.3015C273.149 55.4715 255.909 50.1515 229.459 50.0715C217.439 50.0415 212.669 50.4515 205.459 52.1815C184.469 57.2015 168.879 66.7715 163.379 78.0215C160.899 83.0915 160.719 84.2215 161.279 91.4915C162.449 106.621 172.729 127.661 182.589 135.081C184.679 136.651 187.869 139.441 189.689 141.281C191.469 143.081 192.419 143.901 193.709 144.141ZM220.649 152.751C221.279 152.111 221.689 151.601 221.809 151.271C221.999 150.761 220.879 147.781 219.309 144.641C217.739 141.511 216.419 138.831 216.379 138.691C216.329 138.561 212.959 139.581 208.879 140.971C207.259 141.521 205.369 142.061 203.489 142.531C212.559 140.021 225.019 135.121 231.529 131.281C236.129 128.581 240.159 125.931 240.479 125.401C241.349 123.991 242.959 124.231 242.959 125.761C242.959 127.991 225.369 150.441 223.629 150.441C223.399 150.441 222.189 151.391 220.649 152.751ZM128.459 149.311C138.699 149.141 146.489 149.011 152.399 148.901C146.179 149.081 138.549 149.251 129.799 149.381C91.6889 149.961 89.2089 150.111 84.8689 152.091C82.4489 153.201 80.4589 154.631 78.9289 156.341C80.4589 154.631 82.4489 153.191 84.8689 152.091C89.1889 150.111 91.7289 149.941 128.459 149.311ZM168.859 180.861C175.999 178.821 182.909 176.271 189.489 173.231C185.899 174.931 182.219 176.491 178.549 177.871C175.909 178.861 172.569 179.881 168.859 180.861ZM204.639 165.031C209.279 162.041 214.599 158.081 218.079 155.111C214.469 158.401 209.859 161.781 204.639 165.031Z" fill="#F67E24"/>
<path d="M242.969 29.3115C247.649 30.8215 252.309 32.7415 257.179 35.0915C268.859 40.7315 277.049 46.8215 287.779 57.8615C296.799 67.1215 307.959 82.0015 307.959 84.7515C307.959 85.3215 304.249 82.2015 299.709 77.8015C290.559 68.9315 285.559 65.2715 276.039 60.4715C266.869 55.8515 256.929 52.6915 246.639 51.0315C264.039 53.1115 277.489 58.7115 291.719 69.3015C296.259 72.6715 300.179 75.4415 300.429 75.4415C301.859 75.4415 295.569 67.1015 288.549 59.6915C274.549 44.8915 259.339 34.7515 242.969 29.3115ZM217.479 50.3315C213.459 50.7715 209.449 51.4315 205.459 52.3215C200.009 53.5415 194.869 55.1315 190.169 57.0115C194.839 55.1215 199.959 53.4915 205.459 52.1815C209.649 51.1815 213.019 50.6115 217.479 50.3315ZM216.409 24.7115C212.029 24.5715 207.099 24.5515 202.959 24.7115C207.759 24.5315 212.199 24.5315 216.409 24.7115Z" fill="#F5B189"/>
</svg>
