<svg width="800" height="293" viewBox="0 0 800 293" fill="none" xmlns="http://www.w3.org/2000/svg">
<path d="M197.572 1C200.612 4.12466 203.015 7.46154 205.9 10.3101C208.429 12.8068 208.897 14.7226 206.181 17.347C194.823 28.3204 183.486 39.3182 172.285 50.4518C166.405 56.2968 160.804 62.424 155.111 68.4552C150.894 72.9223 146.714 77.4252 142.57 81.9598C142.179 82.3887 142.16 83.1587 141.978 83.7365C147.171 86.7976 157.428 84.6992 162.591 79.5963C173.393 68.9204 184.202 58.2521 194.954 47.5268C202.863 39.638 210.686 31.6635 218.904 23.3673C223.854 27.8596 228.356 31.9456 233.008 36.1671C225.421 44.2032 218.201 52.1371 210.636 59.7276C207.393 62.9813 207.457 65.1861 210.717 68.3495C218.842 76.2331 226.674 84.419 235.125 92.9923C224.872 103.745 214.506 114.566 204.21 125.452C201.92 127.873 200.216 127.973 197.771 125.392C191.472 118.74 184.705 112.528 178.451 105.835C174.533 101.64 170.111 100.812 165.494 103.412C154.499 109.603 143.389 108.751 132.047 104.928C131.735 104.823 131.416 104.728 131.121 104.586C122.111 100.233 122.18 100.292 115.529 107.923C111.939 112.042 108.225 116.081 104.27 119.845C100.908 123.045 100.173 126.692 102.341 130.407C108.872 141.596 107.816 153.083 104.694 164.892C104.258 166.542 104.982 169.196 106.162 170.456C111.851 176.533 117.765 182.419 123.89 188.056C125.082 189.153 127.901 189.665 129.404 189.054C141.994 183.938 154.283 183.28 166.719 189.724C168.441 190.616 171.825 189.763 173.697 188.56C176.436 186.801 178.557 184.047 180.844 181.624C184.866 177.362 188.938 173.136 192.754 168.692C196.018 164.891 199.5 165.231 202.658 168.183C212.477 177.364 222.13 186.726 231.658 196.207C232.437 196.983 232.443 199.757 231.685 200.658C226.303 207.055 220.639 213.215 215.038 219.427C213.923 220.663 212.799 221.927 211.501 222.953C208.349 225.445 208.601 227.537 211.545 230.176C217.828 235.807 224.021 241.557 229.963 247.544C236.004 253.63 233.18 263.806 224.83 265.732C222.86 266.187 219.759 265.023 218.225 263.529C211.093 256.581 204.268 249.312 197.464 242.036C194.914 239.31 192.746 239.287 190.483 242.162C189.057 243.974 187.675 245.821 185.695 248.408C192.992 256.275 200.236 264.584 208.067 272.297C211.506 275.683 211.468 278.25 208.735 281.553C208.523 281.809 208.342 282.093 208.111 282.328C200.355 290.206 200.409 291.332 191.825 282.322C185.912 276.116 180.205 269.69 173.938 263.865C172.642 262.661 168.606 262.705 166.979 263.83C156.456 271.107 145.569 270.215 134.382 266.169C126.417 263.288 121.916 265.382 116.008 272.686C111.308 278.496 105.402 283.332 99.9823 288.549C99.5747 288.942 98.4773 289.275 98.1954 289.04C94.8193 286.233 90.9983 283.698 88.5124 280.22C87.6016 278.946 89.1849 274.643 90.8674 272.954C107.368 256.388 124.148 240.101 140.804 223.69C145.635 218.931 150.323 214.026 155.143 209.119C151.865 204.375 147.453 203.981 143.727 205.471C139.26 207.256 134.843 209.984 131.38 213.317C114.841 229.231 98.6254 245.482 82.3138 261.632C79.7217 264.199 76.6013 267.756 73.1896 265.669C69.2161 263.239 66.3105 258.981 63.2322 255.275C62.8628 254.83 64.0373 252.613 64.9577 251.666C71.1109 245.332 77.4955 239.221 83.594 232.836C88.5626 227.634 89.3852 226.665 83.588 220.254C79.3473 215.564 74.6321 211.306 70.226 206.761C68.0476 204.514 66.1309 204.405 63.8446 206.608C55.1224 215.01 46.3325 223.343 37.2526 232.002C31.9279 230.426 29.642 225.568 27.2264 221.07C26.7423 220.169 27.8243 217.896 28.8054 216.824C35.0801 209.969 41.4889 203.234 47.9342 196.537C51.7533 192.569 51.9143 189.42 47.7762 185.649C44.18 182.372 41.5613 185.21 38.922 187.542C31.1118 194.442 23.2685 201.304 15.3994 208.137C14.5705 208.856 13.4845 209.28 12.56 209.816C7.70414 205.428 2.35277 201.542 2.65606 194.957C11.5923 186.405 20.2673 178.103 28.862 169.878C24.1527 160.528 21.2204 151.132 22.0885 140.933C22.3194 138.221 22.93 135.375 24.0946 132.938C28.6207 123.468 28.3431 126.332 21.821 118.649C15.8929 111.666 8.44847 105.971 1.33625 99.8539C0.999994 97.9583 0.999994 95.9167 1.34552 93.5914C2.62466 92.1789 3.63932 91.1068 4.47813 89.9113C8.51006 84.165 11.7007 83.6838 16.7386 88.1758C20.1878 91.2512 23.6612 94.3034 27.0169 97.479C39.8942 109.665 52.7167 121.91 65.584 134.107C71.2318 139.46 76.9251 144.766 82.6386 150.049C83.189 150.558 84.0299 150.752 85.1851 151.31C87.8062 146.273 86.3952 141.497 83.4504 138.21C76.5321 130.486 68.889 123.4 61.3988 116.202C48.8412 104.135 36.1519 92.2053 23.5744 80.1586C21.3541 78.0319 21.5027 72.6848 23.541 70.9874C25.8106 69.0974 28.2431 67.3416 30.2205 65.1765C33.3228 61.7799 36.5903 62.4228 39.3648 64.929C46.3669 71.2543 53.2216 77.7631 59.8046 84.5207C62.0419 86.8174 63.4168 87.3249 65.6332 84.9006C70.5543 79.5176 75.3658 74.0085 80.6222 68.9681C83.4657 66.2414 82.0885 64.0568 80.3862 62.3127C74.5926 56.3768 68.4461 50.7873 62.5287 44.9696C56.6637 39.2034 56.7133 39.1472 62.0526 33.4407C62.5076 32.9544 63.0625 32.5341 63.4147 31.9831C68.2134 24.4756 73.5919 23.859 79.8251 30.3021C85.119 35.7741 90.2674 41.3875 95.4503 46.9661C97.4 49.0645 99.579 50.1698 101.777 47.6515C103.839 45.2887 108.208 43.201 104.54 39.1572C98.3049 32.283 91.8895 25.565 85.3693 18.9594C82.3319 15.8822 82.0548 13.412 85.1957 10.1474C87.8094 7.43083 89.7572 4.07352 92 1C93.3889 1 94.7778 1 96.4301 1.33371C104.113 9.26012 111.508 16.8772 118.96 24.4377C124.862 30.4259 124.751 29.9864 132.88 27.1583C140.236 24.5994 147.834 22.6729 155.777 25.7822C162.132 28.27 168.134 28.9546 173.281 22.3837C177.394 17.1323 182.771 12.8883 187.345 7.97191C189.224 5.95238 190.467 3.34175 192 1C193.714 1 195.429 1 197.572 1ZM80.9854 196.525C86.7935 201.653 92.5404 206.855 98.4704 211.838C99.4522 212.664 101.817 213.288 102.549 212.722C106.288 209.831 109.702 206.519 113.598 203.023C89.3486 182.04 67.7067 159.147 42.5271 138.093C41.5685 147.742 41.1941 155.428 47.194 161.679C58.2348 173.18 69.3811 184.58 80.9854 196.525ZM207.8 200.612C205.428 198.134 203.135 195.575 200.66 193.206C198.79 191.417 197.402 191.633 195.433 193.849C190.542 199.351 185.186 204.447 179.912 209.598C168.116 221.119 156.231 232.549 144.464 244.101C143.388 245.157 141.974 247.669 142.317 248.045C143.531 249.375 145.343 250.574 147.103 250.912C152.618 251.97 157.55 249.314 161.145 245.991C176.961 231.377 192.307 216.255 207.8 200.612ZM122.967 74.4674C132.929 64.1728 143.967 54.836 151.722 42.1374C146.737 42.5678 141.566 42.8497 137.905 45.3461C129.809 50.866 121.898 56.9204 114.956 63.8089C103.226 75.4473 92.2891 87.8855 81.0899 100.053C80.4505 100.748 80.0099 102.141 80.2287 103.023C81.3896 107.701 86.8007 109.409 90.267 106.098C101.063 95.7869 111.739 85.3505 122.967 74.4674ZM201.01 98.4778C202.279 97.5153 203.595 96.6086 204.808 95.5797C208.43 92.5058 208.575 90.2972 205.241 87.1495C202.304 84.3762 199.239 81.7377 196.297 79.0988C195.807 79.2525 195.481 79.3031 195.205 79.4491C184.432 85.1438 184.141 90.1298 194.213 96.9886C196.044 98.2359 197.439 101.16 201.01 98.4778Z" fill="#02A950"/>
<path d="M684.182 63.9977C689.46 63.9977 694.737 63.9977 700.702 63.9977C700.854 66.2094 701.026 68.7098 701.301 72.7213C707.18 64.4679 714.091 61.4647 723.171 61.798C732.24 62.1309 738.752 65.8713 743.886 73.6861C751.732 60.586 763.402 60.198 775.501 63.1937C784.296 65.371 788.529 72.6611 790.98 80.9265C791.487 82.6366 791.636 84.4528 791.673 86.9691C791.273 103.088 791.152 118.459 791.03 133.829C785.486 133.778 779.941 133.727 774.185 132.87C773.981 119.769 774.016 107.473 773.962 95.1776C773.956 93.7919 773.441 92.4085 773.162 91.0241C772.591 82.7064 769.115 78.3823 761.908 78.0878C755.03 77.8067 749.649 81.3516 747.965 89.2773C747.799 90.0568 747.382 90.7829 746.747 92.2395C746.244 106.249 746.075 119.553 745.447 132.91C739.744 132.963 734.5 132.963 728.992 132.963C728.992 119.137 729.022 106.03 728.955 92.9239C728.946 91.1731 728.447 89.4248 728.174 87.6753C726.532 81.5268 722.782 78.1765 717.338 77.9941C711.529 77.7994 704.647 82.7292 703.064 88.2149C702.75 89.3023 702.416 90.384 701.716 92.162C701.232 106.517 701.124 120.179 701.016 133.84C695.648 133.88 690.28 133.92 684.452 133.443C684.054 109.95 684.118 86.9736 684.182 63.9977Z" fill="#01A94F"/>
<path d="M368.688 53.7997C366.883 53.8104 364.845 54.1186 363.894 53.2444C354.692 44.7911 343.889 43.6933 332.765 47.3265C321.142 51.1229 314.144 59.9257 311.239 71.7307C308.756 81.8227 309.686 91.704 314.569 100.978C325.142 121.057 350.968 126.138 367.429 106.629C372.577 110.172 377.785 113.757 382.996 117.342C371.773 134.094 353.772 139.239 331.043 134.83C305.903 129.953 292.505 112.254 290.228 89.5802C287.34 60.8134 299.924 40.5246 322.546 31.5143C341.031 24.1521 366.605 26.0417 380.874 44.8878C376.9 47.7766 372.93 50.6626 368.688 53.7997Z" fill="#02A950"/>
<path d="M296.035 158.176C317.699 158.139 339.363 158.103 361.517 158.583C362.008 164.328 362.008 169.556 362.008 175.202C345.834 175.202 330.428 175.202 314.663 175.415C314.305 184.214 314.305 192.801 314.305 202.103C329.363 202.103 344.11 202.103 358.905 202.561C358.953 207.907 358.953 212.795 358.953 218.006C345.416 218.006 332.692 217.966 319.969 218.053C318.3 218.065 316.636 218.724 314.97 219.084C314.97 219.084 314.96 218.963 314.632 219.162C314.145 233.238 313.985 247.117 313.824 260.995C308.868 261.316 303.912 261.638 298.281 261.564C297.07 259.629 296.07 258.09 296.066 256.548C295.988 223.758 296.022 190.967 296.035 158.176Z" fill="#00A94F"/>
<path d="M594.196 110.46C591.85 98.4123 592.058 87.0034 599.107 76.8844C605.776 67.311 615.217 62.4914 626.96 61.9532C635.554 61.5593 643.817 62.5204 651.221 67.1209C661.738 73.6568 668.299 82.8939 668.973 95.571C670.306 120.648 654.223 134.195 632.844 135.689C616.736 136.815 601.088 129.365 594.196 110.46ZM647.952 87.7997C646.841 86.5707 645.801 85.2676 644.607 84.1245C636.448 76.3099 623.592 75.9147 616.447 84.4078C609.255 92.9585 607.956 103.841 616.487 112.948C623.515 120.45 633.587 121.054 642.417 114.817C649.717 109.662 654.049 98.9219 647.952 87.7997Z" fill="#02A950"/>
<path d="M627.066 233.02C629.31 247.746 646.496 256.125 663.992 238.983C668.235 242.271 672.493 245.57 677.087 249.13C668.815 258.851 658.858 263.17 646.526 263.074C627.037 262.923 612.797 251.551 609.404 233.756C605.822 214.966 616.532 195.185 635.294 190.832C643.196 188.998 650.878 189.14 658.274 191.349C670.32 194.947 676.371 204.434 678.891 216.154C679.92 220.939 679.632 226.007 679.426 231.443C663.3 231.962 647.691 231.954 632.082 232.051C630.408 232.062 628.738 232.682 627.066 233.02ZM641.007 203.933C632.894 205.439 629.014 209.808 627.898 218.455C639.042 218.455 650.215 218.455 661.435 218.455C659.904 206.894 654.002 204.34 646.909 203.571C645.207 203.387 643.454 203.67 641.007 203.933Z" fill="#02A950"/>
<path d="M392.009 233.176C392.916 245.977 407.815 252.763 419.606 245.672C422.696 243.813 425.583 241.617 428.786 239.423C432.725 242.35 436.888 245.444 441.254 248.689C434.333 257.778 425.773 262.58 414.594 263.08C401.441 263.667 390.161 260.122 381.388 249.904C376.955 244.741 374.222 238.702 374.147 232.019C374.074 225.513 374.043 218.611 376.048 212.563C379.875 201.022 387.905 193.497 400.473 190.778C408.865 188.962 416.96 188.958 424.658 192.05C436.248 196.706 441.604 206.633 443.905 218.319C444.726 222.49 444.634 226.84 444.443 231.558C427.831 232.007 411.736 231.982 395.641 232.057C394.428 232.062 393.219 232.786 392.009 233.176ZM420.305 219.008C422.092 219.008 423.879 219.008 425.662 219.008C425.668 208.662 419.441 203.69 407.015 203.592C399.516 203.533 392.007 210.739 392.59 219.008C401.491 219.008 410.422 219.008 420.305 219.008Z" fill="#02A950"/>
<path d="M476.942 261.855C471.444 261.795 465.946 261.735 460.22 260.867C460.054 237.381 460.115 214.704 460.632 192.018C462.559 192.001 464.033 191.939 465.503 191.997C468.59 192.119 472.074 191.509 474.599 192.781C475.949 193.462 475.621 197.434 476.163 199.896C476.185 199.996 477.357 199.843 477.994 199.808C481.128 196.871 483.781 192.455 487.478 191.254C502.895 186.247 520.322 191.518 523.471 211.908C523.179 229.008 523.068 245.43 522.957 261.851C517.617 261.886 512.276 261.921 506.475 261.441C506.011 249.145 506.054 237.364 505.966 225.584C505.947 222.991 505.461 220.402 505.189 217.811C502.992 208.891 499.593 205.779 492.294 206.003C484.54 206.24 480.04 210.745 478.008 220.291C477.281 234.505 477.112 248.18 476.942 261.855Z" fill="#01A94F"/>
<path d="M438.132 126.023C430.843 135.628 421.154 137.587 410.099 134.527C398.676 131.366 394.327 122.672 392.99 110.933C393.055 94.705 393.111 79.3562 393.168 64.0073C398.473 64.0191 403.778 64.0308 409.544 64.5631C410.004 73.4823 409.919 81.8823 410.039 90.2793C410.094 94.1826 410.55 98.0803 410.824 101.981C411.235 103.877 411.903 105.759 412.012 107.672C412.507 116.375 419.073 120.799 427.468 118.228C435.193 115.861 438.052 110.11 438.967 101.926C439.043 88.71 439.105 76.3555 439.166 64.001C444.473 64.0149 449.781 64.0289 455.549 64.5637C456 87.6663 455.99 110.248 455.519 132.894C450.115 132.958 445.174 132.958 440.176 132.958C440.028 129.576 439.908 126.837 439.731 122.808C438.798 124.684 438.465 125.353 438.132 126.023Z" fill="#01A94F"/>
<path d="M515.894 94.9735C525.527 100.364 528.857 107.66 526.953 118.512C525.752 125.354 517.133 132.226 508.938 134.172C498.645 136.616 488.678 136.403 479.14 131.963C468.059 126.803 467.923 125.062 476.665 116.859C478.064 115.546 479.589 114.367 480.936 113.227C483.726 115.2 486.56 116.89 489.022 119.012C494.118 123.401 499.551 122.054 504.704 119.779C506.573 118.954 508.466 116.268 508.696 114.244C508.885 112.578 507.029 109.662 505.389 108.994C500.269 106.907 494.892 105.32 489.49 104.085C472.859 100.283 468.792 90.0151 473.414 75.8691C476.13 67.5567 483.911 63.11 492.522 62.2298C498.677 61.6007 505.272 61.8367 511.196 63.441C516.307 64.8252 520.748 68.6854 526.285 71.9183C521.317 76.5124 517.491 80.0492 514.227 83.0671C510.103 80.9347 506.416 78.4588 502.352 77.1475C500.046 76.4033 496.757 76.8913 494.588 78.0701C492.597 79.1515 490.497 81.8429 490.37 83.9415C490.275 85.5007 492.976 88.0714 494.93 88.7436C499.536 90.3284 504.475 90.9188 509.209 92.1751C511.401 92.7566 513.429 93.9541 515.894 94.9735Z" fill="#02A950"/>
<path d="M545.93 79.0744C541.484 79.0744 537.037 79.0744 532.312 79.0744C532.312 73.8746 532.312 69.3009 532.312 63.996C535.508 63.996 538.612 63.868 541.701 64.031C544.976 64.2037 546.141 62.7901 546.039 59.6006C545.88 54.6439 545.997 49.6783 545.997 44.1377C552.259 44.1377 558.121 44.1377 564.706 44.1377C564.706 50.2526 564.706 56.776 564.706 63.6416C571.27 63.6416 577.136 63.6416 583.884 63.6416C583.884 68.1179 584.085 72.5221 583.704 76.8755C583.634 77.6865 581.259 78.8211 579.896 78.8989C575.253 79.1638 570.587 79.0231 565.077 79.2701C564.149 85.9617 563.954 92.422 564.038 98.8786C564.1 103.619 564.526 108.355 564.789 113.093C566.251 118.449 569.925 120.734 574.967 119.517C577.341 118.944 579.753 118.522 582.154 118.067C582.456 118.01 582.8 118.176 583.942 118.397C583.942 122.602 584.019 126.984 583.872 131.358C583.845 132.163 583.074 133.417 582.373 133.654C573.933 136.507 556.842 137.853 551.117 129.272C548.215 124.923 547.66 119.008 546.32 113.035C546.73 102.589 546.907 92.91 546.945 83.2304C546.951 81.8465 546.285 80.4598 545.93 79.0744Z" fill="#01A94F"/>
<path d="M545.668 204.711C551.755 195.276 560.877 190.239 570.929 189.48C582.45 188.609 594.312 190.166 602.73 200.463C598.631 204.336 594.549 208.194 590.18 212.323C585.818 209.246 581.056 204.246 574.561 206.262C570.054 207.662 565.386 210.302 562.155 213.689C555.53 220.637 556.311 233.759 562.842 240.356C571.618 249.221 579.375 249.221 590.931 240.11C594.872 244.528 598.83 248.964 602.788 253.399C587.216 267.361 563.832 265.968 550.382 253.383C538.013 241.809 534.439 222.173 545.668 204.711Z" fill="#02A950"/>
<path d="M295.611 158.288C296.023 190.967 295.988 223.758 296.066 256.548C296.07 258.09 297.07 259.629 297.821 261.509C294.895 262.777 294.964 260.822 294.976 258.623C295.031 248.151 294.982 237.678 295.005 227.205C295.055 204.27 295.125 181.335 295.611 158.288Z" fill="#ADDDC4"/>
<path d="M358.858 202.103C344.11 202.103 329.363 202.103 314.305 202.103C314.305 192.801 314.305 184.214 314.675 175.635C315.045 175.643 315.032 176.084 315.032 176.084C315.032 184.213 315.032 192.341 315.032 201.155C330.087 201.155 344.85 201.155 359.487 201.598C359.193 202.062 359.025 202.082 358.858 202.103Z" fill="#ACDDC3"/>
<path d="M683.971 63.6619C684.118 86.9736 684.054 109.95 683.986 133.383C683.655 132.878 683.046 131.916 683.043 130.953C682.989 109.267 682.993 87.5812 683.034 65.8953C683.035 65.0384 683.507 64.1824 683.971 63.6619Z" fill="#A5D8BD"/>
<path d="M460.176 192.027C460.115 214.704 460.054 237.381 459.954 260.525C459.612 260.321 459.041 259.65 459.042 258.979C459.05 236.456 459.114 213.933 459.607 191.506C460.045 191.602 460.176 192.027 460.176 192.027Z" fill="#BCE6D0"/>
<path d="M455.981 132.83C455.99 110.248 456 87.6662 456.013 64.6274C456.345 65.5242 456.954 66.8775 456.957 68.232C457.005 89.5169 456.974 110.802 456.686 132.523C456.411 132.96 455.981 132.83 455.981 132.83Z" fill="#249E5D"/>
<path d="M315.497 176.05C315.032 176.084 315.045 175.643 315.033 175.423C330.428 175.202 345.834 175.202 362.008 175.202C362.008 169.555 362.008 164.328 361.979 158.647C362.448 163.924 362.946 169.655 363.499 176.016C347.153 176.016 331.558 176.016 315.497 176.05Z" fill="#B9E5CE"/>
<path d="M728.103 88.1702C728.446 89.4246 728.946 91.1729 728.955 92.9237C729.022 106.03 728.992 119.137 728.992 132.963C734.5 132.963 739.744 132.963 745.683 132.961C746.379 132.96 746.858 133.025 746.858 133.025C740.784 133.501 734.71 133.976 728.032 134.499C728.032 118.757 728.032 103.711 728.103 88.1702Z" fill="#B1E0C7"/>
<path d="M358.905 202.562C359.025 202.083 359.193 202.062 359.612 202.017C359.864 207.445 359.864 212.897 359.864 219.02C345.23 219.02 330.571 219.02 315.44 219.052C316.636 218.724 318.3 218.065 319.969 218.053C332.692 217.966 345.416 218.006 358.953 218.006C358.953 212.795 358.953 207.907 358.905 202.562Z" fill="#85C7A4"/>
<path d="M392.473 233.102C393.219 232.786 394.428 232.062 395.641 232.057C411.735 231.982 427.831 232.007 444.384 232.012C443.369 232.345 441.899 232.949 440.425 232.957C424.596 233.035 408.767 233.019 392.473 233.102Z" fill="#98D1B3"/>
<path d="M627.529 233.015C628.738 232.682 630.408 232.062 632.082 232.051C647.691 231.954 663.3 231.962 679.361 231.894C678.429 232.231 677.046 232.941 675.66 232.949C659.771 233.031 643.881 233.006 627.529 233.015Z" fill="#99D1B3"/>
<path d="M523.367 261.706C523.068 245.43 523.179 229.009 523.573 212.273C523.831 228.493 523.804 245.027 523.367 261.706Z" fill="#5BB183"/>
<path d="M392.969 63.6599C393.112 79.3563 393.055 94.7052 392.956 110.521C392.61 110.161 392.043 109.335 392.04 108.507C391.986 94.126 391.99 79.7447 392.033 65.3635C392.035 64.6791 392.513 63.9961 392.969 63.6599Z" fill="white"/>
<path d="M791.389 133.616C791.152 118.459 791.273 103.088 791.618 87.3723C791.81 102.486 791.779 117.944 791.389 133.616Z" fill="#36A268"/>
<path d="M505.129 218.296C505.461 220.402 505.947 222.991 505.966 225.584C506.054 237.364 506.011 249.145 506.012 261.383C505.671 260.727 505.045 259.615 505.041 258.5C504.996 245.261 505.044 232.022 505.129 218.296Z" fill="#A5D8BC"/>
<path d="M314.042 261.321C313.985 247.117 314.145 233.238 314.693 219.155C315.054 231.654 315.051 244.358 314.967 257.062C314.957 258.592 314.507 260.119 314.042 261.321Z" fill="#A8DBC0"/>
<path d="M477.352 261.708C477.112 248.18 477.281 234.505 477.683 220.514C477.864 233.986 477.813 247.774 477.352 261.708Z" fill="#4CAA78"/>
<path d="M701.417 133.683C701.124 120.178 701.232 106.517 701.555 92.5146C701.786 105.958 701.803 119.742 701.417 133.683Z" fill="#83C5A2"/>
<path d="M773.091 91.4883C773.441 92.4084 773.956 93.7918 773.962 95.1774C774.016 107.473 773.981 119.769 773.91 132.531C773.564 131.636 773.043 130.277 773.037 128.916C772.98 116.595 773.013 104.274 773.091 91.4883Z" fill="#C3EBD6"/>
<path d="M746.916 132.56C746.858 133.026 746.379 132.961 746.143 132.909C746.075 119.553 746.244 106.249 746.595 92.6023C746.844 105.537 746.909 118.816 746.916 132.56Z" fill="#61B387"/>
<path d="M438.965 63.6548C439.104 76.3556 439.043 88.7102 438.914 101.53C438.564 100.987 438.042 99.9789 438.037 98.9685C437.978 87.9308 437.983 76.8925 438.033 65.8547C438.037 65.0049 438.51 64.1572 438.965 63.6548Z" fill="white"/>
<path d="M410.89 101.516C410.55 98.0803 410.095 94.1826 410.039 90.2792C409.919 81.8822 410.004 73.4823 410.009 64.6265C410.341 65.519 410.948 66.867 410.956 68.2185C411.019 79.1628 410.97 90.1077 410.89 101.516Z" fill="#1D9D59"/>
<path d="M545.956 79.5356C546.285 80.4599 546.951 81.8465 546.945 83.2305C546.907 92.9101 546.729 102.589 546.38 112.616C546.103 101.975 546.043 90.9859 545.956 79.5356Z" fill="#30A165"/>
<path d="M564.865 112.618C564.526 108.355 564.1 103.619 564.038 98.8786C563.954 92.422 564.149 85.9617 564.611 79.3252C564.979 90.1457 564.96 101.144 564.865 112.618Z" fill="#B8E3CC"/>
<path d="M460.632 192.018C460.176 192.028 460.045 191.602 460.024 191.38C465.429 191.159 470.855 191.159 476.699 191.159C476.896 193.978 477.087 196.698 477.636 199.613C477.357 199.843 476.185 199.996 476.163 199.896C475.621 197.434 475.949 193.462 474.599 192.781C472.074 191.509 468.59 192.119 465.503 191.997C464.033 191.939 462.559 192.001 460.632 192.018Z" fill="#219F5C"/>
<path d="M455.518 132.894C455.981 132.83 456.411 132.96 456.633 132.991C451.044 133.492 445.232 133.962 438.863 134.477C438.863 131.247 438.863 128.843 438.498 126.23C438.465 125.353 438.798 124.684 439.731 122.808C439.908 126.837 440.027 129.576 440.176 132.958C445.173 132.958 450.115 132.958 455.518 132.894Z" fill="#B2E0C7"/>
</svg>
