<?xml version="1.0" encoding="UTF-8"?>
<svg id="Layer_2" data-name="Layer 2" xmlns="http://www.w3.org/2000/svg" xmlns:xlink="http://www.w3.org/1999/xlink" viewBox="0 0 7580.79 1696.81">
  <defs>
    <style>
      .cls-1 {
        fill: #bf2d32;
      }

      .cls-2 {
        clip-path: url(#clippath-1);
      }

      .cls-3 {
        fill: #022d41;
      }

      .cls-4 {
        fill: #bf2e33;
      }

      .cls-5 {
        clip-path: url(#clippath);
      }
    </style>
    <clipPath id="clippath">
      <rect class="cls-3" x="2363.62" y="339.18" width="144.44" height="953.06"/>
    </clipPath>
    <clipPath id="clippath-1">
      <rect class="cls-3" y="339.09" width="144.45" height="953.06"/>
    </clipPath>
  </defs>
  <g id="Layer_1" data-name="Layer 1">
    <g>
      <g>
        <path class="cls-1" d="M7556.99,1200.86c-21.25-11.44-48.22,0-109.52,38.41-65.4,40.98-137.31,51.76-189.62,53.94-76.22,3.18-121.39-27.38-154.08-103.55,5.11-1.74,41.95-14.65,78.46-27.79,156.92-56.48,151.82-75.93,129.4-150.59-38.41-127.93-118.5-113.22-210.87-60.48-47.01,26.84-84.57,60.44-116.17,120.37-14,26.55-25.06,81.73-22.3,129.7-32.89,10.29-60.85,16.67-90.76,14.89-34.81-2.08-72.17-15.88-107.04-45.43,31.06-57.76,39.76-107.41,43.05-153.11,6.45-89.65-38.35-157.4-119.06-128.32-62.21,22.41-82.82,33.24-101.35,67.02-18.53,33.78-4.63,91.54,4.9,114.7,9.54,23.16,47.4,93.45,111.7,141.94-39.23,60.48-82.32,89.02-130.89,89.02-90.94,0-135-66.09-139.56-265.75l.27-8.55c141.94-165.92,330.39-525.86,330.39-681.99,0-63.29-9.28-102.88-86.48-105.48-245.51-8.27-416.99,393.81-416.99,714.44,0,64.55,6.91,126.13,21.47,181.02-6.04,5.75-12.35,11.77-18.93,18.08-64.3,61.57-132.31,119.24-178.96,118.08-53.5-1.33-70.32-49.49-75.3-110.58-3.01-36.95,11.81-103.82,32.57-132.48-11.69-5.8-31.17-8.65-51.6-8.65-56.92,0-110.05,17.71-117.92,74.96-17.08,124.23,24.58,228.35,126.73,228.35s209-73.47,291.88-159.23c39.19,118.74,118.33,199.74,246.03,199.74,80.3,0,141.94-56.45,192.62-135.45,33.35,18.25,80.95,32.69,112.79,32.69,50.67,0,72.15-6.95,111.7-19.62,6.1-1.95,12.91-4.2,18.71-6.09,5.81,12.71,10.3,22.5,16.35,30.88,42.5,58.85,107.23,74.58,158.1,76.53,100.5,3.86,162.62-11.97,210.02-31.29,66.2-26.97,102.16-54.76,141.67-70.02,39.22-15.15,57.76-3.54,72.47,12.8,4.9-17.98,10.23-40.13-13.89-53.13ZM6430.66,898.26c0-286.9,81.65-627.2,233.23-621.95,59.73,2.07,62.15,29.55,62.15,77.35,0,135.04-164.89,485.23-295.11,638.88l-.27-94.28ZM6731.07,1139.46c-54.49-50.13-80.19-91.99-86.73-141.03-6.54-49.04,14.86-67.25,61.3-80.91,55.58-16.35,79.55,57.21,73.01,101.89-7.08,59.39-17.98,87.18-35.96,131.32l-11.62-11.26ZM7085.79,1079.79c10.56-48.28,38.98-75.66,59.94-91.55,33.78-25.61,102.93-59.54,133.75,21.92,24.9,65.81,1.38,77.97-46.03,96.5-47.78,18.67-63.87,24.2-112.61,40.5,0,0-21.39,7.59-28.79,10.08,0,0-13.89-42.59-6.26-77.46Z"/>
        <path class="cls-1" d="M5351.63,1373c-306.19,0-549.56-471.54-549.56-793.89,0-223.22,79.06-407.39,269.7-407.39,81.15,0,162.21,20.91,184.55,39.06-83.15,86.47-152.05,386.48-152.05,648.77,0,322.34,135.89,467.36,273.78,467.36s275.78-146.54,275.78-406.07c0-230.16-148.06-541.39-148.06-633.47,0-156.23,206.88-245.56,454.24-287.38-131.81,115.84-154.14,273.5-154.14,435.33,0,82.3,6.08,166.02,6.08,245.56,0,221.8-107.48,692.01-460.33,692.01"/>
        <polygon class="cls-3" points="909.64 1304.67 363.02 631.9 363.02 1291.65 225.8 1291.65 225.8 338.59 283.58 338.59 815.75 982.62 815.75 338.59 952.97 338.59 952.97 1304.67 909.64 1304.67"/>
        <path class="cls-3" d="M1013.93,1249.73l50.63-113.12c32.69,15.26,62.64,25.98,102.84,37.96,40.2,11.97,76.21,17.86,107.95,17.86,56.35,0,101.59-13.88,135.8-41.63,34.21-27.74,51.32-63.1,51.32-106.05,0-32.12-9.5-61.86-28.51-89.42-19.01-27.56-66.8-57.59-143.3-90.09l-85.24-35.83c-72.32-30.31-122.78-66.33-151.38-107.95-28.6-41.63-42.95-91.7-42.95-150.24,0-71.08,27.94-130.09,83.81-176.94,55.88-46.85,127.53-70.32,215.15-70.32,116.98,0,190.42,23.68,244.13,51.41l-42.67,113.18c-19.29-12.54-48.66-24.7-88.09-36.4-39.44-11.69-76.12-17.58-109.76-17.58-49.13,0-87.71,12.64-115.94,37.72-28.22,25.09-42.29,57.49-42.29,96.93,0,24.33,5.04,46.38,15.2,66.33,10.17,19.95,24.23,36.68,42.29,50.08,18.05,13.4,55.02,32.31,110.8,56.64l86.67,37.06c72.22,30.79,122.88,67.56,152.05,110.23,29.17,42.67,43.71,97.03,43.71,162.97,0,71.56-31.93,132.28-95.7,182.17-63.77,49.9-149.1,74.79-256.01,74.79-93.89,0-174-19.96-240.52-59.87"/>
        <path class="cls-3" d="M1845.51,335.64c-22.62,0-88.4,1.99-197.85,5.46v951.06h144.45l-.09-368.82c54.09.03,90.56-.35,106.91-.54,271.48-3.07,405.71-92.43,405.43-294.03-.27-190.43-151.7-293.14-458.83-293.14ZM1888.84,809.63c-3.33,0-32.57,2.22-96.74.54v-354.09c35.84-.58,59.39-1.46,78.68-1.46,191.11,0,292.8,51.55,292.71,173.38-.1,127.15-95.61,181.63-274.65,181.63Z"/>
        <g>
          <rect class="cls-3" x="2363.62" y="339.18" width="144.44" height="953.06"/>
          <g class="cls-5">
            <path class="cls-3" d="M214.7,275.41h2342.77v1080.63H214.7V275.41Z"/>
          </g>
        </g>
        <polygon class="cls-3" points="3962.21 456.16 3962.21 339.09 3330.35 339.09 3330.35 1292 3954.32 1292 3954.32 1174.93 3474.8 1174.93 3474.8 920.44 3824.32 920.44 3824.32 809.82 3474.8 809.82 3474.8 456.16 3962.21 456.16"/>
        <path class="cls-3" d="M4627.81,453.99c-86.19-80.87-203.17-119.35-350.95-119.35-38.01,0-129.42-1.24-260.67,4.46v952.96h213.06l-.09.19c351.9,0,527.89-171.81,527.89-515.26,0-134.46-43.05-242.14-129.24-323.01ZM4518.81,1072.54c-57.78,68.33-137.22,99.44-238.33,99.44-47.61,0-86.45,1.88-119.83.54V455.08c59.54-1.27,94.08-1.46,107.57-1.46,224.84,0,337.26,108.8,337.26,334.31,0,121.45-28.89,216.29-86.67,284.61Z"/>
        <path class="cls-3" d="M3325.59,1291.81l-302.35-390.53c146.01-37.25,218.36-124.78,218.15-272.85-.27-190.43-151.7-293.14-458.83-293.14-22.62,0-88.4,1.99-197.85,5.46v951.06h144.45l-.09-368.82c54.09.03,90.56-.35,106.91-.54,24.02-.27,46.95-1.23,68.82-2.87l255.26,372.03,165.54.19ZM2729.15,455.73c35.84-.58,59.39-1.46,78.68-1.46,191.11,0,292.8,51.55,292.71,173.38-.1,127.15-95.61,181.63-274.65,181.63-3.33,0-32.57,2.22-96.74.54v-354.09Z"/>
        <g>
          <rect class="cls-3" y="339.09" width="144.45" height="953.06"/>
          <g class="cls-2">
            <path class="cls-3" d="M0,339.09h144.44v952.94H0V339.09Z"/>
          </g>
        </g>
        <polygon class="cls-4" points="6019.59 609.45 5984.03 766.41 5866.58 743.89 5959.32 819.66 5880.82 938.86 6005.67 862.13 6149.56 1029.45 6073.77 826.41 6230.41 700.01 6051.78 764.43 6019.59 609.45"/>
        <g>
          <path class="cls-3" d="M2952.66,1643.23c0,32.64-24.37,51.41-71.76,51.41h-89.44v-190.41h84.08c43.11,0,67.21,18.5,67.21,49.24,0,20.67-10.44,35.09-25.17,42.44,21.15,5.98,35.08,22.03,35.08,47.33ZM2818.24,1526.26v60.93h54.89c27.31,0,42.84-10.34,42.84-30.47s-15.53-30.47-42.84-30.47h-54.89ZM2925.62,1641.05c0-22.03-16.07-31.83-45.79-31.83h-61.59v63.38h61.59c29.72,0,45.79-9.52,45.79-31.55Z"/>
          <path class="cls-3" d="M2989.72,1612.49v-108.26h26.78v107.18c0,42.16,19.01,61.2,52.75,61.2s53.02-19.04,53.02-61.2v-107.18h25.97v108.26c0,55.22-29.72,84.33-79.26,84.33s-79.26-29.11-79.26-84.33Z"/>
          <path class="cls-3" d="M3182.71,1672.88l9.91-21.22c13.92,12.79,37.76,22.03,61.86,22.03,32.4,0,46.33-12.79,46.33-29.38,0-46.52-113.54-17.14-113.54-87.86,0-29.38,22.49-54.4,71.76-54.4,21.96,0,44.72,5.98,60.25,16.86l-8.84,21.76c-16.33-10.61-34.81-15.5-51.41-15.5-31.87,0-45.52,13.6-45.52,30.19,0,46.52,113.54,17.41,113.54,87.32,0,29.11-23.03,54.13-72.57,54.13-28.65,0-56.77-9.79-71.76-23.94Z"/>
          <path class="cls-3" d="M3365.41,1504.23h26.78v190.41h-26.78v-190.41Z"/>
          <path class="cls-3" d="M3605.61,1504.23v190.41h-21.96l-112.47-141.99v141.99h-26.78v-190.41h21.96l112.47,141.99v-141.99h26.78Z"/>
          <path class="cls-3" d="M3794.53,1670.97v23.67h-136.03v-190.41h132.28v23.67h-105.5v58.48h93.99v23.12h-93.99v61.48h109.25Z"/>
          <path class="cls-3" d="M3820.53,1672.88l9.91-21.22c13.92,12.79,37.76,22.03,61.86,22.03,32.4,0,46.33-12.79,46.33-29.38,0-46.52-113.54-17.14-113.54-87.86,0-29.38,22.49-54.4,71.76-54.4,21.96,0,44.72,5.98,60.25,16.86l-8.84,21.76c-16.33-10.61-34.81-15.5-51.41-15.5-31.87,0-45.52,13.6-45.52,30.19,0,46.52,113.54,17.41,113.54,87.32,0,29.11-23.03,54.13-72.57,54.13-28.65,0-56.77-9.79-71.76-23.94Z"/>
          <path class="cls-3" d="M3986.15,1672.88l9.91-21.22c13.92,12.79,37.76,22.03,61.86,22.03,32.4,0,46.33-12.79,46.33-29.38,0-46.52-113.54-17.14-113.54-87.86,0-29.38,22.49-54.4,71.76-54.4,21.96,0,44.72,5.98,60.25,16.86l-8.84,21.76c-16.33-10.61-34.81-15.5-51.41-15.5-31.87,0-45.52,13.6-45.52,30.19,0,46.52,113.54,17.41,113.54,87.32,0,29.11-23.03,54.13-72.57,54.13-28.65,0-56.77-9.79-71.76-23.94Z"/>
          <path class="cls-3" d="M4252.32,1504.23h78.99c60.25,0,101.22,38.63,101.22,95.21s-40.97,95.21-101.22,95.21h-78.99v-190.41ZM4329.71,1670.97c46.33,0,76.05-28.83,76.05-71.54s-29.72-71.54-76.05-71.54h-50.61v143.08h50.61Z"/>
          <path class="cls-3" d="M4608.09,1670.97v23.67h-136.03v-190.41h132.28v23.67h-105.5v58.48h93.99v23.12h-93.99v61.48h109.25Z"/>
          <path class="cls-3" d="M4818.29,1504.23l-82.21,190.41h-26.51l-82.47-190.41h28.92l67.48,156.41,68.02-156.41h26.78Z"/>
          <path class="cls-3" d="M4981.18,1670.97v23.67h-136.03v-190.41h132.28v23.67h-105.5v58.48h93.99v23.12h-93.99v61.48h109.25Z"/>
          <path class="cls-3" d="M5018.19,1504.23h26.78v166.75h101.49v23.67h-128.27v-190.41Z"/>
          <path class="cls-3" d="M5152.77,1599.43c0-55.76,42.31-97.38,99.88-97.38s99.34,41.35,99.34,97.38-42.31,97.38-99.34,97.38-99.88-41.62-99.88-97.38ZM5325.22,1599.43c0-42.16-31.06-73.17-72.57-73.17s-73.1,31.01-73.1,73.17,31.06,73.17,73.1,73.17,72.57-31.01,72.57-73.17Z"/>
          <path class="cls-3" d="M5542.82,1570.6c0,41.35-29.46,66.37-78.19,66.37h-46.33v57.67h-26.78v-190.41h73.1c48.74,0,78.19,25.03,78.19,66.37ZM5516.04,1570.6c0-27.2-17.94-42.71-52.22-42.71h-45.52v85.41h45.52c34.28,0,52.22-15.5,52.22-42.71Z"/>
          <path class="cls-3" d="M5753,1694.64l-.27-138.73-67.75,115.61h-12.32l-67.75-114.79v137.91h-25.71v-190.41h21.96l78.19,133.83,77.12-133.83h21.96l.27,190.41h-25.71Z"/>
          <path class="cls-3" d="M5967.65,1670.97v23.67h-136.03v-190.41h132.28v23.67h-105.5v58.48h93.99v23.12h-93.99v61.48h109.25Z"/>
          <path class="cls-3" d="M6165.86,1504.23v190.41h-21.96l-112.47-141.99v141.99h-26.78v-190.41h21.96l112.47,141.99v-141.99h26.78Z"/>
          <path class="cls-3" d="M6257.6,1527.89h-64.27v-23.67h155.04v23.67h-64.27v166.75h-26.51v-166.75Z"/>
          <path class="cls-3" d="M6579.73,1647.04h-99.61l-20.62,47.6h-27.58l84.88-190.41h26.51l85.15,190.41h-28.12l-20.62-47.6ZM6570.36,1625.27l-40.43-93.3-40.43,93.3h80.87Z"/>
          <path class="cls-3" d="M6777.03,1598.34h25.71v74.26c-18.74,16.05-44.72,24.21-70.96,24.21-57.57,0-99.88-41.07-99.88-97.38s42.31-97.38,100.42-97.38c29.72,0,54.89,10.06,72.03,29.38l-16.6,16.87c-15.53-15.23-33.2-22.03-54.36-22.03-43.38,0-74.71,30.74-74.71,73.17s31.33,73.17,74.44,73.17c15.8,0,30.53-3.54,43.92-12.24v-62.02Z"/>
          <path class="cls-3" d="M6986.33,1670.97v23.67h-136.03v-190.41h132.28v23.67h-105.5v58.48h93.99v23.12h-93.99v61.48h109.25Z"/>
          <path class="cls-3" d="M7184.54,1504.23v190.41h-21.96l-112.47-141.99v141.99h-26.78v-190.41h21.96l112.47,141.99v-141.99h26.78Z"/>
          <path class="cls-3" d="M7224.06,1599.43c0-56.31,42.31-97.38,99.34-97.38,28.92,0,54.09,10.06,71.23,29.65l-17.41,17.14c-14.46-15.51-32.13-22.58-52.75-22.58-42.31,0-73.64,31.01-73.64,73.17s31.33,73.17,73.64,73.17c20.62,0,38.29-7.34,52.75-22.85l17.41,17.14c-17.14,19.59-42.31,29.92-71.5,29.92-56.77,0-99.08-41.07-99.08-97.38Z"/>
          <path class="cls-3" d="M7506.35,1628.81v65.83h-26.51v-66.37l-74.44-124.04h28.65l59.98,100.38,60.25-100.38h26.51l-74.44,124.58Z"/>
        </g>
      </g>
      <path class="cls-1" d="M7548.39,1325.08c0,21.75-16.68,38.8-38.09,38.8s-37.87-17.05-37.87-38.58,16.46-38.58,38.09-38.58,37.87,16.61,37.87,38.36ZM7543.34,1325.08c0-19.02-13.88-33.44-32.82-33.44s-33.03,14.86-33.03,33.66,14.09,33.66,32.82,33.66,33.03-14.86,33.03-33.88ZM7520.74,1331.74l9.79,15.41h-7.42l-8.93-13.99h-11.73v13.99h-7.32v-43.71h17.21c10.76,0,17.43,5.79,17.43,14.86,0,6.67-3.33,11.37-9.04,13.44ZM7522.68,1318.3c0-5.57-3.98-8.63-10.87-8.63h-9.47v17.38h9.47c6.89,0,10.87-3.17,10.87-8.74Z"/>
    </g>
  </g>
</svg>