<?xml version="1.0" encoding="UTF-8"?><svg id="Layer_1" xmlns="http://www.w3.org/2000/svg" viewBox="0 0 195.95 56.19"><path d="m122.09,43.47c.12.11.17.25.17.42v7.56c0,.17-.06.31-.17.42-.11.12-.26.17-.44.17s-.33-.06-.45-.17c-.12-.11-.17-.26-.17-.43v-5.79l-2.42,3.67c-.06.08-.13.14-.22.19-.09.05-.18.07-.27.06-.08,0-.17-.01-.26-.06-.09-.05-.16-.11-.22-.19l-2.44-3.79v5.9c0,.17-.05.32-.16.43-.1.11-.24.17-.42.17s-.3-.06-.41-.17c-.1-.11-.16-.26-.16-.43v-7.56c0-.16.06-.3.17-.42.12-.12.26-.18.44-.18.1,0,.2.03.29.08.1.05.17.12.23.2l2.96,4.49,3-4.49c.13-.18.3-.28.5-.28.17,0,.31.07.42.18Z" style="fill:#14305a; stroke-width:0px;"/><path d="m130,45.58c.11.11.17.26.17.44v5.43c0,.17-.06.31-.17.42-.11.12-.26.17-.43.17s-.32-.06-.43-.17-.16-.26-.16-.43v-.33c-.22.29-.51.54-.89.74s-.78.31-1.21.31c-.57,0-1.08-.15-1.54-.44-.46-.29-.83-.7-1.09-1.22s-.39-1.11-.39-1.76.13-1.24.39-1.76c.26-.52.62-.93,1.08-1.22.46-.29.96-.44,1.51-.44.44,0,.85.09,1.23.28s.68.42.91.7v-.3c0-.17.05-.32.16-.44.11-.12.25-.17.43-.17s.32.06.43.17Zm-1.94,5.19c.3-.2.54-.47.71-.82.17-.35.26-.75.26-1.19s-.08-.83-.26-1.18c-.17-.35-.41-.63-.71-.83-.3-.2-.65-.31-1.04-.31s-.74.1-1.04.3c-.3.2-.54.47-.71.83-.17.35-.26.75-.26,1.19s.08.84.26,1.19c.17.35.41.62.71.82.3.2.65.3,1.04.3s.74-.1,1.04-.3Z" style="fill:#14305a; stroke-width:0px;"/><path d="m135.82,45.52c.16.11.24.25.24.42,0,.2-.05.35-.16.46-.1.1-.23.16-.38.16-.08,0-.19-.03-.34-.08-.18-.06-.31-.09-.41-.09-.26,0-.51.09-.76.27-.25.18-.45.42-.6.74s-.23.66-.23,1.04v3.01c0,.17-.06.31-.17.42-.11.12-.26.17-.43.17s-.32-.06-.42-.17-.16-.26-.16-.43v-5.35c0-.17.06-.31.17-.42.11-.12.25-.17.42-.17s.32.06.43.17c.11.12.17.26.17.42v.64c.18-.41.46-.74.82-.99.37-.25.78-.38,1.25-.39.22,0,.4.06.56.17Z" style="fill:#14305a; stroke-width:0px;"/><path d="m142.75,51.45c0,.17-.06.31-.19.42-.13.11-.26.17-.41.17-.18,0-.33-.07-.44-.2l-2.46-2.61-.75.67v1.55c0,.17-.06.31-.17.42-.11.12-.25.17-.42.17-.17,0-.32-.06-.43-.17-.11-.12-.17-.26-.17-.42v-8.05c0-.17.06-.31.17-.42.11-.12.26-.17.43-.17s.31.06.42.17c.11.12.17.26.17.42v5.08l3.06-2.81c.14-.12.29-.19.44-.19.14,0,.27.06.39.18.12.12.17.25.17.38,0,.17-.08.32-.24.45l-2.16,1.92,2.4,2.6c.12.13.19.28.19.44Z" style="fill:#14305a; stroke-width:0px;"/><path d="m149.51,48.91c-.12.1-.25.16-.41.16h-4.4c.06.61.29,1.1.69,1.46.4.37.9.55,1.48.55.4,0,.72-.06.97-.18.25-.12.47-.27.66-.45.12-.08.25-.11.36-.11.14,0,.26.05.36.15s.14.22.14.35c0,.18-.08.33-.25.48-.24.24-.56.45-.96.61-.4.17-.81.25-1.22.25-.67,0-1.27-.14-1.78-.42s-.91-.68-1.19-1.19c-.28-.51-.42-1.08-.42-1.73,0-.7.14-1.31.43-1.84.29-.53.67-.93,1.14-1.22.47-.28.98-.42,1.52-.42s1.03.14,1.5.41c.47.27.84.65,1.12,1.14.28.48.43,1.03.44,1.62,0,.15-.07.28-.19.38Zm-4.09-2.06c-.34.26-.57.67-.67,1.22h3.69v-.1c-.04-.44-.24-.8-.59-1.09s-.76-.42-1.21-.42-.87.13-1.21.39Z" style="fill:#14305a; stroke-width:0px;"/><path d="m152.91,46.67v3.73c0,.42.19.62.56.62.06,0,.14-.01.24-.04.1-.03.18-.04.24-.04.11,0,.2.05.27.14.08.09.11.21.11.35,0,.17-.1.33-.3.45-.2.12-.42.19-.67.19-.27,0-.53-.03-.76-.09-.23-.06-.43-.21-.61-.44-.18-.24-.27-.6-.27-1.08v-3.78h-.72c-.16,0-.29-.05-.39-.16-.1-.1-.16-.24-.16-.39s.05-.29.16-.39c.1-.1.24-.15.39-.15h.72v-1.05c0-.17.06-.31.17-.42.11-.12.26-.17.43-.17s.31.06.42.17c.11.12.17.26.17.42v1.05h1.04c.16,0,.29.05.39.16.1.1.16.24.16.39s-.05.29-.16.39c-.1.1-.24.15-.39.15h-1.04Z" style="fill:#14305a; stroke-width:0px;"/><path d="m160.77,45.82c.46.29.82.69,1.08,1.21.26.52.39,1.1.39,1.75s-.13,1.23-.39,1.74-.62.92-1.08,1.21c-.46.29-.96.44-1.51.44-.43,0-.84-.1-1.21-.29s-.68-.42-.91-.7v2.78c0,.17-.06.31-.17.42-.11.12-.26.17-.43.17-.17,0-.31-.06-.42-.17-.11-.11-.17-.26-.17-.43v-7.86c0-.17.05-.32.16-.44.11-.12.25-.17.42-.17s.32.06.43.17c.11.12.17.26.17.44v.36c.2-.29.49-.54.88-.75.38-.21.79-.31,1.22-.31.57,0,1.08.14,1.54.43Zm-.64,4.94c.31-.2.55-.47.72-.82s.26-.74.26-1.17-.08-.82-.26-1.17-.41-.62-.72-.82c-.31-.2-.65-.3-1.04-.3s-.74.1-1.05.29c-.31.2-.55.47-.72.82-.17.35-.26.74-.26,1.17s.08.83.26,1.18c.17.35.41.62.72.82.31.2.66.29,1.05.29s.73-.1,1.04-.3Z" style="fill:#14305a; stroke-width:0px;"/><path d="m164.79,51.88c-.12.12-.26.17-.42.17s-.31-.06-.42-.17c-.11-.12-.17-.26-.17-.42v-8.05c0-.17.06-.31.17-.42.12-.12.26-.17.43-.17s.31.06.42.17c.11.12.17.26.17.42v8.05c0,.17-.06.31-.17.42Z" style="fill:#14305a; stroke-width:0px;"/><path d="m172.65,45.58c.11.11.17.26.17.44v5.43c0,.17-.06.31-.17.42-.11.12-.26.17-.43.17s-.32-.06-.42-.17c-.11-.11-.16-.26-.16-.43v-.33c-.22.29-.51.54-.89.74s-.78.31-1.21.31c-.57,0-1.08-.15-1.54-.44s-.83-.7-1.09-1.22c-.26-.52-.39-1.11-.39-1.76s.13-1.24.39-1.76c.26-.52.62-.93,1.08-1.22.46-.29.96-.44,1.51-.44.44,0,.85.09,1.23.28s.68.42.91.7v-.3c0-.17.05-.32.16-.44.11-.12.25-.17.42-.17s.32.06.43.17Zm-1.94,5.19c.3-.2.54-.47.71-.82.17-.35.26-.75.26-1.19s-.08-.83-.26-1.18c-.17-.35-.41-.63-.71-.83-.3-.2-.65-.31-1.04-.31s-.74.1-1.04.3c-.3.2-.54.47-.71.83-.17.35-.26.75-.26,1.19s.08.84.26,1.19c.17.35.41.62.71.82.3.2.65.3,1.04.3s.74-.1,1.04-.3Z" style="fill:#14305a; stroke-width:0px;"/><path d="m179.14,45.67c.44.21.66.48.66.8,0,.14-.05.27-.14.38-.09.11-.21.17-.35.17-.11,0-.19-.02-.26-.05-.06-.03-.15-.09-.26-.16-.05-.05-.13-.11-.24-.17-.1-.05-.24-.09-.42-.12s-.35-.05-.5-.05c-.43,0-.82.1-1.15.3-.33.2-.59.48-.77.83-.18.35-.28.75-.28,1.18s.09.84.27,1.19c.18.35.43.62.76.82.33.2.7.3,1.11.3s.78-.07,1.05-.2c.06-.03.14-.09.24-.16.08-.07.16-.12.22-.15s.14-.05.23-.05c.17,0,.3.05.39.16.1.1.14.24.14.41s-.11.35-.33.52-.52.31-.89.42c-.37.11-.77.16-1.19.16-.63,0-1.19-.15-1.67-.44s-.86-.7-1.12-1.23c-.26-.52-.39-1.1-.39-1.74s.14-1.22.41-1.74c.27-.52.66-.93,1.15-1.22.49-.3,1.05-.44,1.69-.44s1.21.1,1.64.31Z" style="fill:#14305a; stroke-width:0px;"/><path d="m186.69,48.91c-.12.1-.25.16-.41.16h-4.4c.06.61.29,1.1.69,1.46.4.37.9.55,1.48.55.4,0,.72-.06.97-.18.25-.12.47-.27.66-.45.12-.08.25-.11.36-.11.14,0,.26.05.36.15s.14.22.14.35c0,.18-.08.33-.25.48-.24.24-.56.45-.96.61-.4.17-.81.25-1.22.25-.67,0-1.27-.14-1.78-.42s-.91-.68-1.19-1.19c-.28-.51-.42-1.08-.42-1.73,0-.7.14-1.31.43-1.84.29-.53.67-.93,1.14-1.22.47-.28.98-.42,1.52-.42s1.03.14,1.5.41c.47.27.84.65,1.12,1.14.28.48.43,1.03.44,1.62,0,.15-.07.28-.19.38Zm-4.09-2.06c-.34.26-.57.67-.67,1.22h3.69v-.1c-.04-.44-.24-.8-.59-1.09s-.76-.42-1.21-.42-.87.13-1.21.39Z" style="fill:#14305a; stroke-width:0px;"/><path d="m17.02,39.07c-.11,0-.23-.04-.32-.13-3.02-2.98-4.39-5.76-4.21-8.48.31-4.51,4.85-7.9,9.23-11.18,3.56-2.66,6.92-5.17,7.51-7.95.04-.2.22-.35.42-.36.22,0,.39.13.45.33,2.11,7.44-2.32,10.7-6.61,13.86-4.31,3.17-8.38,6.17-6.05,13.32.06.2-.01.41-.19.52-.07.05-.15.07-.24.07Z" style="fill:#e2ab36; stroke-width:0px;"/><path d="m11.85,34.96c-.12,0-.24-.05-.33-.14-3.29-3.46-4.71-6.51-4.34-9.31.57-4.29,5.18-7.1,9.64-9.81l.15-.09c.13-.08.3-.09.44-.02.14.07.23.21.24.37.33,4.29-1.5,5.99-3.26,7.63-2.14,1.99-4.17,3.87-2.12,10.81.06.2-.03.41-.21.52-.07.04-.15.06-.22.06Z" style="fill:#14305a; stroke-width:0px;"/><path d="m6.16,30.46c-.11,0-.23-.04-.32-.13-3.02-2.98-4.39-5.76-4.21-8.48.31-4.51,4.85-7.9,9.23-11.18,3.56-2.66,6.92-5.17,7.51-7.94.04-.2.22-.35.42-.36.22,0,.39.13.45.33,2.11,7.44-2.32,10.7-6.61,13.86-4.31,3.17-8.38,6.17-6.06,13.32.06.2-.01.41-.19.52-.07.05-.15.07-.24.07Z" style="fill:#14305a; stroke-width:0px;"/><path d="m109.66,34.75c.3.31.45.68.45,1.11,0,.45-.15.81-.45,1.09-.3.28-.69.42-1.16.42h-11.66c-.45,0-.83-.16-1.14-.47-.31-.31-.47-.69-.47-1.14V15.52c0-.45.16-.83.47-1.14s.69-.47,1.14-.47h11.66c.47,0,.85.15,1.16.44s.45.67.45,1.14-.15.81-.45,1.09c-.3.28-.69.42-1.16.42h-9.95v6.83h8.44c.47,0,.85.15,1.16.44.3.29.45.66.45,1.1,0,.47-.15.84-.45,1.11s-.69.4-1.16.4h-8.44v7.4h9.95c.47,0,.85.16,1.16.47Z" style="fill:#14305a; stroke-width:0px;"/><path d="m118.05,37.01c-1.25-.46-2.44-1.2-3.58-2.23-.47-.4-.7-.86-.7-1.37,0-.4.16-.76.47-1.09.31-.32.68-.49,1.11-.49.38,0,.7.12.97.37.89.83,1.81,1.44,2.76,1.83.95.39,2.03.59,3.23.59,1.41,0,2.6-.32,3.57-.97.97-.65,1.46-1.46,1.46-2.45-.02-1.16-.51-2.06-1.46-2.7-.95-.64-2.39-1.17-4.34-1.59-2.3-.47-4.07-1.24-5.31-2.31-1.24-1.07-1.86-2.56-1.86-4.45,0-1.32.35-2.47,1.04-3.47.69-.99,1.65-1.76,2.88-2.29,1.23-.54,2.61-.8,4.15-.8,1.38,0,2.69.22,3.92.67,1.23.45,2.22,1.04,2.98,1.78.51.45.77.93.77,1.44,0,.4-.15.76-.45,1.07s-.66.47-1.09.47c-.31,0-.57-.09-.77-.27-.58-.58-1.38-1.07-2.41-1.47s-2.01-.6-2.95-.6c-1.5,0-2.68.31-3.57.92-.88.61-1.32,1.42-1.32,2.43,0,1.09.44,1.93,1.32,2.51.88.58,2.19,1.07,3.94,1.47,1.74.38,3.16.83,4.27,1.34,1.1.51,1.96,1.23,2.56,2.14.6.92.9,2.11.9,3.58,0,1.3-.36,2.45-1.09,3.45-.73,1-1.71,1.79-2.96,2.34-1.25.56-2.62.84-4.12.84-1.63,0-3.07-.23-4.32-.69Z" style="fill:#14305a; stroke-width:0px;"/><path d="m138.71,37.01c-1.25-.46-2.44-1.2-3.58-2.23-.47-.4-.7-.86-.7-1.37,0-.4.16-.76.47-1.09.31-.32.68-.49,1.11-.49.38,0,.7.12.97.37.89.83,1.81,1.44,2.76,1.83.95.39,2.03.59,3.23.59,1.41,0,2.6-.32,3.57-.97.97-.65,1.46-1.46,1.46-2.45-.02-1.16-.51-2.06-1.46-2.7-.95-.64-2.39-1.17-4.34-1.59-2.3-.47-4.07-1.24-5.31-2.31-1.24-1.07-1.86-2.56-1.86-4.45,0-1.32.35-2.47,1.04-3.47.69-.99,1.65-1.76,2.88-2.29,1.23-.54,2.61-.8,4.15-.8,1.38,0,2.69.22,3.92.67,1.23.45,2.22,1.04,2.98,1.78.51.45.77.93.77,1.44,0,.4-.15.76-.45,1.07s-.66.47-1.09.47c-.31,0-.57-.09-.77-.27-.58-.58-1.38-1.07-2.41-1.47s-2.01-.6-2.95-.6c-1.5,0-2.68.31-3.57.92-.88.61-1.32,1.42-1.32,2.43,0,1.09.44,1.93,1.32,2.51.88.58,2.19,1.07,3.94,1.47,1.74.38,3.16.83,4.27,1.34,1.1.51,1.96,1.23,2.56,2.14.6.92.9,2.11.9,3.58,0,1.3-.36,2.45-1.09,3.45-.73,1-1.71,1.79-2.96,2.34-1.25.56-2.62.84-4.12.84-1.63,0-3.07-.23-4.32-.69Z" style="fill:#14305a; stroke-width:0px;"/><path d="m159.17,36.89c-.33.31-.73.47-1.17.47-.49,0-.89-.16-1.19-.47-.3-.31-.45-.7-.45-1.17V15.53c0-.45.16-.83.47-1.14s.71-.47,1.21-.47c.45,0,.83.16,1.16.47.32.31.49.69.49,1.14v20.2c0,.47-.17.86-.5,1.17Z" style="fill:#14305a; stroke-width:0px;"/><path d="m185.67,31.77c-.97,1.83-2.32,3.28-4.04,4.34-1.72,1.06-3.66,1.59-5.83,1.59s-4.11-.53-5.83-1.59c-1.72-1.06-3.06-2.51-4.04-4.34-.97-1.83-1.46-3.87-1.46-6.13s.49-4.3,1.46-6.13c.97-1.83,2.32-3.28,4.04-4.34,1.72-1.06,3.66-1.59,5.83-1.59s4.11.53,5.83,1.59c1.72,1.06,3.06,2.51,4.04,4.34.97,1.83,1.46,3.87,1.46,6.13s-.49,4.3-1.46,6.13Zm-3-10.67c-.67-1.35-1.6-2.41-2.8-3.18-1.19-.77-2.55-1.16-4.07-1.16s-2.88.38-4.07,1.14c-1.19.76-2.13,1.81-2.8,3.16-.67,1.35-1,2.88-1,4.57s.33,3.19,1,4.54,1.6,2.41,2.8,3.18c1.19.77,2.55,1.16,4.07,1.16s2.88-.39,4.07-1.16c1.19-.77,2.13-1.83,2.8-3.18.67-1.35,1-2.86,1-4.54s-.33-3.19-1-4.54Z" style="fill:#14305a; stroke-width:0px;"/><path d="m42.97,36.89c-.33.31-.73.47-1.17.47-.49,0-.89-.16-1.19-.47-.3-.31-.45-.7-.45-1.17V15.52c0-.45.16-.83.47-1.14s.71-.47,1.21-.47c.45,0,.83.16,1.16.47.32.31.49.69.49,1.14v20.2c0,.47-.17.86-.5,1.17Z" style="fill:#14305a; stroke-width:0px;"/><path d="m67.54,14.33c.27.28.4.63.4,1.06v20.33c0,.47-.15.86-.45,1.17-.3.31-.69.47-1.16.47-.25,0-.49-.04-.72-.12-.23-.08-.42-.2-.55-.35l-13.16-17.15v16.14c0,.42-.14.78-.42,1.06s-.63.42-1.06.42-.77-.14-1.04-.42c-.27-.28-.4-.63-.4-1.06V15.52c0-.47.15-.85.45-1.16s.68-.45,1.12-.45c.27,0,.52.05.77.15.25.1.44.24.57.42l13.13,17.18V15.39c0-.42.14-.78.42-1.06.28-.28.63-.42,1.06-.42s.77.14,1.04.42Z" style="fill:#14305a; stroke-width:0px;"/><path d="m91.92,15.42c0-.47-.15-.85-.45-1.16s-.68-.45-1.12-.45c-.27,0-.52.05-.77.15-.25.1-.44.24-.57.42l-13.13,17.18V15.28c0-.42-.14-.78-.42-1.06-.28-.28-.63-.42-1.06-.42s-.77.14-1.04.42c-.27.28-.4.63-.4,1.06v20.33c0,.47.15.86.45,1.17.3.31.69.47,1.16.47.25,0,.49-.04.72-.12.23-.08.42-.2.55-.35l13.16-17.15v.03l2.91-3.8v-.45Z" style="fill:#14305a; stroke-width:0px;"/><path d="m188.91,14.55v3.09h-1.18v-3.09h-.84v-.97h2.87v.97h-.84" style="fill:#14305a; stroke-width:0px;"/><path d="m194.52,13.58v4.07h-1.16v-2.91l-.75,2.91h-.79l-.78-2.91v2.91h-.94v-4.07h1.63l.59,2.16.56-2.16h1.64" style="fill:#14305a; stroke-width:0px;"/></svg>