<svg width="686" height="108" viewBox="0 0 686 108" fill="none" xmlns="http://www.w3.org/2000/svg">
<path d="M42.3949 67.3941L57.7197 40.9274L15.8125 46.1502L0 73.4482L42.3949 67.3941Z" fill="white"/>
<path d="M78.5435 74.4362H47.886L73.3828 108H105L78.5435 74.4362Z" fill="white"/>
<path d="M66.1609 39.6256L81.4857 66.0924L97.904 27.298L82.0915 0L66.1609 39.6256Z" fill="white"/>
<path d="M520.927 40.9799L502.665 83.9639H488.214L513.929 26.4433H528.293L554 83.9711H538.931L520.934 40.9871L520.927 40.9799Z" fill="white"/>
<g style="mix-blend-mode:overlay">
<path d="M521.107 83.8704L511.577 67.363H530.637L521.107 83.8704Z" fill="white"/>
</g>
<path d="M672.609 67.4637H657.583L670.077 83.9639H685.57L672.609 67.4637Z" fill="white"/>
<path d="M197.504 26.4433V58.4655C197.504 62.5942 198.058 66.2481 200.208 69.0317C202.352 71.8153 205.61 73.4841 210.141 73.4841C214.673 73.4841 217.931 71.8153 220.075 69.0317C222.218 66.2481 222.858 62.5942 222.858 58.4655V26.4433H235.014V59.2567C235.014 65.6152 233.662 72.0455 229.454 76.8934C225.246 81.7414 218.492 84.8343 209.911 84.8343C201.33 84.8343 194.576 81.8133 190.448 76.8934C186.319 71.9664 184.888 65.8453 184.888 59.2567V26.4433H197.518H197.504Z" fill="white"/>
<path d="M260.477 26.4433H273.107V72.923H298.296V83.9639H260.477V26.4433Z" fill="white"/>
<path d="M318.702 26.4433H331.333V72.923H356.522V83.9639H318.702V26.4433Z" fill="white"/>
<path d="M394.989 73.8725C400.153 73.8725 403.332 71.8873 403.332 67.9168C403.332 65.1332 401.822 63.6227 398.247 62.1986C394.672 60.7744 387.523 59.3358 382.754 56.5594C377.985 53.7758 375.446 49.6472 375.446 43.2096C375.446 32.1687 383.473 25.5729 395.55 25.5729C401.189 25.5729 408.022 27.0043 413.028 29.6225V41.8574C406.986 38.1243 400.239 36.5347 395.866 36.5347C391.177 36.5347 388.156 38.3617 388.156 42.0156C388.156 44.7992 389.745 46.2234 393.399 47.6548C397.053 49.0861 404.203 50.4384 408.972 53.2939C413.74 56.1494 416.042 60.76 416.042 66.802C416.042 78.1666 407.698 84.8343 395.226 84.8343C389.263 84.8343 381.797 83.2447 376.316 80.3028V67.5932C382.754 72.0455 390.536 73.8725 394.989 73.8725Z" fill="white"/>
<path d="M596.43 84.8343C577.995 84.8343 565.206 72.1246 565.206 55.3582C565.206 38.5919 578.074 25.5657 596.509 25.5657C602.623 25.5657 608.427 26.9971 612.959 29.5362V42.0084C608.586 38.9083 602.788 36.844 596.991 36.844C585.705 36.844 577.923 44.7129 577.923 55.1209C577.923 65.5288 585.547 73.556 597.466 73.556C603.342 73.556 608.988 71.4917 613.434 68.3125V80.7056C608.665 83.4892 602.314 84.8343 596.43 84.8343Z" fill="white"/>
<path d="M637.342 26.4433H649.973V51.4238L670.71 26.4433H685.57L649.973 67.4709V83.9711H637.342V26.4433Z" fill="white"/>
<path d="M452.056 37.5129H464.694V37.4842H483.287V26.4433H433.47V37.4842H452.056V37.5129Z" fill="white"/>
<path d="M464.687 47.1657H452.056V83.9639H464.687V47.1657Z" fill="white"/>
<path d="M163.467 26.4433H127V37.4842H163.467V26.4433Z" fill="white"/>
<path d="M127 47.1369V83.964H139.631V57.7894H160.288V47.1369H139.631H127Z" fill="white"/>
<path d="M521.033 84.2976L511.544 67.8633H530.528L521.033 84.2976Z" fill="white"/>
</svg>
