<?xml version="1.0" encoding="UTF-8"?>
<svg xmlns="http://www.w3.org/2000/svg" xmlns:xlink="http://www.w3.org/1999/xlink" version="1.1" width="3162.2002820874472" height="428.4563041876961" viewBox="0 0 3162.2002820874472 428.4563041876961">
  <g transform="scale(8.110014104372356) translate(10, 10)">
    <defs id="SvgjsDefs6586"></defs>
    <g id="SvgjsG6587" transform="matrix(0.8847322095544337,0,0,0.8847322095544337,-6.193128841866576,-27.850359543959613)" fill="#d72323">
      <g xmlns="http://www.w3.org/2000/svg" transform="translate(0,-952.36218)">
        <path style="color:;enable-background:accumulate;" d="m 7.000009,1016.3622 16,-1 c 0,-3.0491 2,-8 2,-8 0,0 2.5409,0 5,0 2,-4 5,-12.00002 7,-12.00002 0,0 1,-4 3,-4 2.6314,0 16.99998,9.00002 16.99998,9.00002 l -10.99998,16 c 0,0 5.41738,-2.8351 10.99998,-4 1.988,-0.4148 -0.2344,-4.7065 2,-5 1.929,-0.2534 4,-1 5,-1 1,0 2.0324,-13.24872 4,-11.00002 7,8.00002 21.4047,17.28082 25.000002,21.00002 l -12.000002,-17.00002 -3,4.00002 -9,-13.00002 -11,7 -10.99998,-8 -3,2 -5,-3 -4,6 -5,-2 -12,16.00002 -3.3749,-0.6251 -7.6251,8.6251" fill="#d72323" stroke="none" visibility="visible" display="inline" overflow="visible"></path>
      </g>
    </g>
    <g id="SvgjsG6588" transform="matrix(1.1091392777439548,0,0,1.1091392777439548,93.42679827187412,-12.15616652638405)" fill="#eeeeee">
      <path d="M2.32 40 l0 -28.6 l20.68 0 l0 8.16 l-10 0 l0 4 l8.12 0 l0 7.72 l-8.12 0 l0 8.72 l-10.68 0 z M39.879999999999995 40.56 c-8.84 0 -13.88 -4.24 -13.88 -12.76 l0 -16.4 l10.64 0 l0 16.08 c0 3.04 0.4 4.76 3.24 4.76 c2.8 0 3.04 -1.84 3.04 -4.68 l0 -16.16 l10.72 0 l0 16.44 c0 9.04 -5.56 12.72 -13.76 12.72 z M58.12 40 l0 -28.6 l10.68 0 l0 20.44 l9.64 0 l0 8.16 l-20.32 0 z M81.91999999999999 40 l0 -28.6 l10.68 0 l0 20.44 l9.64 0 l0 8.16 l-20.32 0 z M116.96 40.56 c-8.16 0 -12.96 -2.96 -13.04 -9.84 l10.04 0 c0.08 1.36 0.84 2.44 3 2.44 c1.68 0 2.2 -0.64 2.2 -1.52 c0 -1 -0.88 -1.48 -3.24 -1.76 c-8.52 -0.92 -11.44 -3.28 -11.44 -9.36 c0 -5.56 4.44 -9.56 12.04 -9.56 c7.48 0 11.52 2.92 12 9.48 l-9.84 0 c-0.08 -1.24 -0.84 -2.08 -2.2 -2.08 c-1.28 0 -1.92 0.52 -1.92 1.36 c0 0.96 0.76 1.48 3.2 1.72 c7.08 0.68 11.6 2.4 11.6 9.04 c0 5.44 -4.16 10.08 -12.4 10.08 z M137.51999999999998 40 l0 -20.44 l-6.92 0 l0 -8.16 l24.56 0 l0 8.16 l-6.92 0 l0 20.44 l-10.72 0 z M155.87999999999997 40 l8.8 -28.6 l13.72 0 l8.76 28.6 l-11.36 0 l-0.96 -3.8 l-8.08 0 l-0.96 3.8 l-9.92 0 z M170.83999999999997 19.96 l-2.32 9.12 l4.56 0 z M203.72 40.56 c-10.88 0 -15.72 -5.92 -15.72 -14.68 l0 -0.32 c0 -8.96 6.56 -14.6 15.2 -14.6 c8.2 0 13.44 3.6 14.16 11.84 l-11.04 0 c-0.12 -2.16 -1.24 -3.44 -3.08 -3.44 c-2.52 0 -4 2 -4 6.16 l0 0.32 c0 4.04 1.44 6.2 4.2 6.2 c1.96 0 3.4 -1.04 3.64 -3.44 l10.64 0 c-0.32 7.8 -6.08 11.96 -14 11.96 z M220.48 40 l0 -28.6 l10.68 0 l0 9.76 l6.64 -9.76 l10.96 0 l-9.32 13 l9.84 15.6 l-12.2 0 l-5.92 -10.28 l0 10.28 l-10.68 0 z"></path>
    </g>
  </g>
</svg>
